<?xml version="1.0" encoding="UTF-8"?>
<svg width="461px" height="549px" viewBox="0 0 461 549" version="1.1" xmlns="http://www.w3.org/2000/svg" xmlns:xlink="http://www.w3.org/1999/xlink">
    <title>Group</title>
    <g id="Page-1" stroke="none" stroke-width="1" fill="none" fill-rule="evenodd">
        <g id="shutterstock_1274469856" transform="translate(-157.000000, -205.000000)">
            <g id="Group" transform="translate(157.000000, 205.388899)">
                <path d="M246,134.611101 C241.586,131.401101 235.562,129.161101 229.349,128.723101 C230.807,127.194101 233.67,125.203101 239,124.611101 C248,123.611101 253,128.611101 255,128.611101 C257,128.611101 255,127.611101 250,124.611101 C245,121.611101 233,119.611101 225,120.611101 C212.928,122.120101 209,126.611101 211,128.611101 C212.039,129.650101 211.996,131.766101 211.717,133.562101 C209.114,135.550101 206.811,138.190101 205,141.611101 C202,146.611101 206,141.611101 211,148.611101 C214,152.611101 217,148.611101 217,148.611101 C217,148.611101 217.131,148.325101 217.401,147.848101 C218.553,148.548101 219.32,149.528101 219.703,150.116101 C219.285,150.441101 218.806,150.611101 218,150.611101 C217,150.611101 217,152.611101 219,152.611101 C222,152.611101 220,152.611101 221,150.611101 C221.738,149.135101 225.745,146.578101 231.005,145.736101 C230.366,146.883101 230,148.204101 230,149.611101 C230,154.029101 233.582,157.611101 238,157.611101 C242.418,157.611101 246,154.029101 246,149.611101 C246,149.069101 245.939,148.544101 245.834,148.033101 C249.17,149.456101 251.422,151.033101 252,151.611101 C253,152.611101 257,152.611101 256,151.611101 C255,150.611101 245.985,144.734101 237,143.611101 C231.586,142.934101 227.551,144.090101 224.885,145.528101 C222.725,144.036101 222.622,142.549101 223.342,141.273101 C226.15,139.256101 229.975,137.611101 235,137.611101 C248,137.611101 253,145.611101 256,150.611101 C259,154.611101 257,142.611101 246,134.611101" id="Fill-3" fill="#2D2E2C"></path>
                <path d="M235,162.611101 C227,162.611101 221,158.611101 221,158.611101 L217,160.611101 C217,160.611101 220,163.611101 225,164.611101 C230,165.611101 239,162.611101 235,162.611101" id="Fill-4" fill="#2D2E2C"></path>
                <path d="M286,227.611101 C287,227.611101 294,220.611101 293,208.611101 C293,208.611101 292,218.611101 286,227.611101" id="Fill-5" fill="#2D2E2C"></path>
                <path d="M229,307.611101 C227.063,307.869101 225.272,308.019101 223.609,308.082101 C220.594,307.809101 218.106,306.824101 217,304.611101 C213,296.611101 218,290.611101 230,282.611101 C242,274.611101 261,262.611101 270,251.611101 C271,249.611101 265,256.611101 246,266.611101 C227.833,276.172101 213.331,277.505101 207.722,276.729101 C202.397,275.204101 196.739,272.089101 196,270.611101 C195,268.611101 194,267.611101 192,268.611101 C190,269.611101 188,269.611101 185,265.611101 C182,261.611101 180,255.611101 180,251.611101 C180,249.919101 181.255,248.590101 182.7,247.613101 C183.354,247.770101 184.111,247.789101 185,247.611101 C194,245.611101 200,248.611101 202,248.611101 C204,248.611101 204,245.611101 204,245.611101 C204,245.611101 202,246.611101 199,245.611101 C196,244.611101 198,240.611101 196,240.611101 C194,240.611101 192.934,240.998101 186,239.611101 C181,238.611101 179.702,230.202101 185,230.611101 C186.739,230.746101 190.196,231.611101 193,231.611101 C198,231.611101 201,230.611101 206,230.611101 C211,230.611101 211,230.611101 214,229.611101 C217,228.611101 222,228.611101 224,229.611101 C226,230.611101 228,229.611101 227,228.611101 C226,227.611101 222,224.611101 221,222.611101 C220,220.611101 218,219.611101 219,221.611101 C220,225.611101 218,225.611101 216,225.611101 C214,225.611101 212,228.611101 208,227.611101 C204,226.611101 200,224.611101 199,223.611101 C198,222.611101 196,224.611101 192,226.611101 C188,228.611101 187,225.611101 185,223.611101 C183,221.611101 179,221.611101 178,222.611101 C177,223.611101 170,224.611101 170,218.611101 C170,213.485101 175.829,209.096101 178.777,206.676101 C179.98,207.113101 180.808,207.419101 181,207.611101 C182,208.611101 185,209.611101 187,207.611101 C189,205.611101 191,200.611101 192,199.611101 C193,198.611101 200,199.611101 203,199.611101 C203,199.611101 207,196.611101 201,195.611101 C195,194.611101 190,195.611101 189,196.611101 C188,197.611101 186,200.611101 179,200.611101 C172,200.611101 171,197.611101 169,193.611101 C167,189.611101 169,182.611101 171,179.611101 C173,176.611101 173,172.611101 175,165.611101 C177,158.611101 180,153.611101 182,148.611101 C182.43,147.537101 182.619,146.514101 182.667,145.562101 C184.333,139.513101 179,130.611101 174,126.611101 C169,122.611101 161,119.611101 156,120.611101 C151,121.611101 151,122.611101 148,123.611101 C147.302,123.843101 146.551,123.909101 145.808,123.881101 C145.927,123.713101 146,123.611101 146,123.611101 C140,122.611101 149,116.611101 154,108.611101 C158.548,97.2411013 168.836,89.3231013 173.552,86.1541013 C177.047,85.1581013 180.857,84.3011013 185,83.6111013 C202.834,80.6381013 233.428,75.7121013 257.333,85.3481013 C259.511,87.1681013 261.714,89.6111013 263,92.6111013 C266,99.6111013 266,99.6111013 266,99.6111013 C266,99.6111013 267,90.6111013 262,87.6111013 C265,88.6111013 273,93.6111013 273,99.6111013 C273,105.611101 268,104.611101 268,104.611101 C268,104.611101 273,107.611101 275,101.611101 C276,98.6111013 275,96.6111013 275,96.6111013 C275,96.6111013 280,99.6111013 278,104.611101 C278,104.611101 283,103.611101 281,98.6111013 C282,99.6111013 286,109.611101 280,116.611101 C274,123.611101 268.293,119.904101 269,120.611101 C270,121.611101 276,125.611101 284,117.611101 C285,116.611101 281,122.611101 286,120.611101 C286,120.611101 273,133.611101 284,149.611101 C291,158.611101 287,166.611101 283,170.611101 C283,170.611101 288,168.611101 291,164.611101 C294,160.611101 297,161.611101 297,161.611101 C297,161.611101 290,168.611101 290,174.611101 C290,180.611101 289,185.611101 289,185.611101 C289,185.611101 291,178.611101 294,176.611101 C295,176.611101 291,184.611101 297,192.611101 C298,194.611101 299,187.611101 301,190.611101 C302.612,193.029101 308.118,187.658101 312.29,187.572101 C311.777,189.393101 310.592,192.025101 307.833,194.886101 C307.663,195.063101 307.906,195.332101 308.088,195.167101 C309.546,193.851101 311.479,191.916101 312.931,190.321101 C312.977,191.429101 313,192.215101 313,192.611101 C313,197.275101 307.782,201.068101 306.269,203.992101 C305.903,204.128101 305.494,204.314101 305,204.611101 C300.151,208.767101 297.222,208.125101 295.879,207.338101 C295.208,206.944101 294.35,207.563101 294.533,208.320101 C295,210.257101 298.213,212.368101 302,211.611101 C303.659,211.279101 304.871,210.726101 305.759,210.136101 C305.95,219.834101 307.674,238.734101 310,242.611101 C310.831,243.996101 312.046,246.072101 313.368,248.349101 C312.583,251.868101 310.474,256.391101 306,261.611101 C294,275.611101 259,303.611101 229,307.611101 Z M86.65,440.564101 C90.45,417.882101 95.93,396.621101 100.628,380.571101 C116.337,371.882101 133.245,363.616101 150.009,356.037101 C120.423,380.640101 100.281,411.443101 86.65,440.564101 Z M170,233.611101 C167.89,233.611101 166.769,232.622101 166.29,231.339101 C165.514,229.260101 166.779,226.946101 168.871,226.210101 C171.016,225.456101 172.575,225.508101 173.678,225.852101 C174.882,226.226101 173.854,226.683101 173,227.611101 C172.216,228.463101 172.253,230.334101 172.585,232.016101 C172.697,232.583101 172.374,233.151101 171.821,233.314101 C171.201,233.497101 170.582,233.611101 170,233.611101 Z M159,192.611101 C156,193.611101 152,193.611101 150,185.611101 C148,177.611101 148,170.611101 149,168.611101 C150,166.611101 151.877,160.769101 157,164.611101 C158.788,165.952101 160.773,166.691101 162.425,167.101101 C164.311,168.357101 166.775,168.574101 169.771,166.496101 C169.314,167.571101 169,168.643101 169,169.611101 C169,172.611101 168,172.611101 166,176.611101 C164.643,179.326101 163.287,181.127101 162.555,185.126101 C161.471,188.439101 160.737,192.032101 159,192.611101 Z M130.331,153.251101 C130.514,153.692101 130.733,154.144101 131,154.611101 C133.69,159.319101 136.378,163.131101 138.46,168.768101 C134.802,165.903101 130.641,160.841101 130.331,153.251101 Z M111,121.611101 C97,115.611101 94,114.611101 94,111.611101 C95,111.611101 102,114.611101 114,107.611101 C114.651,112.167101 117.845,120.958101 122.751,129.575101 C119.43,126.465101 115.472,123.528101 111,121.611101 Z M114,95.6111013 C129,87.6111013 134,83.6111013 132,81.6111013 C130.228,79.8391013 123.744,67.0771013 120.9,65.5901013 C124.553,65.9081013 129.405,64.7371013 134,58.6111013 C143,46.6111013 158,41.6111013 168,36.6111013 C178,31.6111013 217,30.6111013 217,30.6111013 C217,30.6111013 220,30.6111013 193,25.6111013 C180.881,23.3671013 168.97,23.3421013 158.792,24.3551013 C168.899,23.2001013 186.608,22.0261013 206,24.6111013 C226.552,26.8131013 235.782,32.2441013 239.243,34.9791013 C233.599,34.7091013 227.49,34.8471013 221,35.6111013 C200.683,38.0011013 189.295,37.8951013 180.645,40.8341013 C167.029,42.2251013 157.906,49.7051013 157,50.6111013 C157,50.6111013 154,52.6111013 161,49.6111013 C164.283,48.2041013 167.115,47.9021013 169.209,47.9721013 C167.829,49.3131013 166.439,50.8401013 165,52.6111013 C152,68.6111013 140,87.6111013 130,92.6111013 C123.386,95.9181013 110.213,100.098101 100.602,101.682101 C104.253,100.340101 108.75,98.4111013 114,95.6111013 Z M237,12.6111013 C241.574,11.6961013 250.337,10.7841013 260.314,10.6341013 C255.508,11.6351013 250.376,13.2221013 245,15.6111013 C225.919,24.0911013 225,22.6111013 222,19.6111013 C219,16.6111013 227,14.6111013 237,12.6111013 Z M155,133.611101 C151.009,136.006101 149.014,140.208101 148.369,141.810101 C147.27,141.367101 146.072,140.683101 145,139.611101 C143.987,138.598101 143.208,137.091101 142.612,135.540101 C142.42,134.102101 142.268,132.617101 142.163,131.105101 C143.876,128.990101 147.182,125.316101 150,124.611101 C154,123.611101 156,126.611101 159,128.611101 C162,130.611101 159,131.611101 155,133.611101 Z M178,146.611101 C178,146.611101 172,142.611101 163,141.611101 C159.517,141.224101 156.641,142.039101 154.414,143.179101 C152.645,141.751101 152.68,140.342101 153.426,139.134101 C155.587,137.305101 158.939,135.611101 164,135.611101 C171.035,135.611101 175.612,139.699101 178,142.647101 C178,143.784101 178,145.081101 178,146.611101 Z M176.205,155.975101 C175.964,156.357101 172.765,160.970101 160.148,158.991101 C159.757,158.750101 159.371,158.611101 159,158.611101 C152,157.611101 150,152.611101 150,152.611101 C149.677,152.288101 148.792,150.398101 147.743,147.991101 C148.513,147.927101 149,147.611101 149,147.611101 L149,147.198101 C149.058,147.263101 149.117,147.329101 149.169,147.393101 C149.065,147.523101 149,147.611101 149,147.611101 C148.276,148.335101 149.124,149.053101 150.026,149.020101 C150.292,152.673101 154,153.611101 154,153.611101 C153.205,152.816101 151.155,150.128101 151.348,148.054101 C152.358,146.649101 154.685,144.973101 158.621,144.138101 C158.224,145.049101 158,146.053101 158,147.111101 C158,151.253101 161.358,154.611101 165.5,154.611101 C169.642,154.611101 173,151.253101 173,147.111101 C173,146.731101 172.963,146.361101 172.907,145.996101 C175.602,147.429101 177.402,149.046101 177.868,149.485101 C177.789,150.355101 177.677,151.150101 177.536,151.875101 C176.83,152.954101 175.417,154.903101 174,155.611101 C174,155.611101 175.42,155.604101 177.063,153.811101 C176.807,154.637101 176.515,155.348101 176.205,155.975101 Z M290,49.6111013 C292,50.6111013 299,44.6111013 306,47.6111013 C313,50.6111013 317,54.6111013 320,61.6111013 C320,61.6111013 323,59.6111013 329,61.6111013 C332.08,62.6371013 335.417,65.5101013 338.077,68.7371013 C341.068,73.6801013 344.992,77.7981013 344,99.6111013 C343,114.611101 341,127.611101 341,127.611101 C343,129.611101 351,141.611101 353,141.611101 C355,141.611101 354,134.611101 353,122.611101 C352,110.611101 347,103.611101 346,92.6111013 C345.816,90.5871013 344.963,82.1321013 344.122,76.5741013 C345.222,75.7581013 347.054,74.8911013 349.266,75.7381013 C359.085,90.3171013 366.07,115.205101 367,149.611101 C367.281,160.020101 367.325,171.457101 367.198,182.944101 C362.533,198.314101 355.578,205.579101 352.311,208.284101 C352.118,208.444101 352.329,208.750101 352.553,208.636101 C361.37,204.186101 365.348,198.444101 367.036,193.397101 C367.024,194.017101 367.012,194.635101 366.999,195.254101 C362.557,206.365101 357.095,211.979101 354.311,214.284101 C354.118,214.444101 354.329,214.750101 354.553,214.636101 C360.688,211.540101 364.472,207.818101 366.78,204.140101 C366.75,205.213101 366.719,206.280101 366.687,207.341101 C362.527,216.432101 357.825,221.202101 355.311,223.284101 C355.118,223.444101 355.329,223.750101 355.553,223.636101 C360.609,221.084101 364.073,218.107101 366.428,215.080101 C366.323,217.922101 366.213,220.709101 366.095,223.407101 C362.565,231.439101 358.579,236.275101 355.837,238.914101 C355.591,236.778101 355.316,234.668101 355,232.611101 C351,206.611101 346,195.611101 343,184.611101 C340,173.611101 336,153.611101 335,143.611101 C334,133.611101 334,121.611101 332,107.611101 C330,93.6111013 331,77.6111013 329,74.6111013 C327,71.6111013 322,65.6111013 323,69.6111013 C323,69.6111013 329,82.6111013 329,101.611101 C329,120.611101 328,128.611101 332,148.611101 C336,168.611101 340,195.611101 333,201.611101 C330.263,203.958101 332,227.611101 333,231.611101 C333,231.611101 343,239.611101 342,237.611101 C340,233.611101 335,227.611101 335,219.611101 C335,211.611101 339,200.611101 340,203.611101 C341,206.611101 344.542,218.684101 347,232.611101 C349.774,248.333101 349.981,270.886101 348.415,280.518101 C346.399,279.116101 344.637,277.906101 343.094,276.861101 C343.396,274.165101 344.104,264.957101 340,262.611101 C333,258.611101 330.428,247.051101 325,242.611101 C314,233.611101 318,221.611101 316,214.611101 C315.15,211.638101 314.842,200.909101 314.846,188.476101 C314.896,188.522101 314.95,188.561101 315,188.611101 C315.51,188.101101 315.5,172.528101 315.368,157.377101 C315.557,151.592101 315.778,146.715101 316,143.611101 C317,129.611101 318,113.611101 316,103.611101 C311,65.6111013 309,61.6111013 309,61.6111013 C307.565,59.3161013 306.46,57.5961013 305.613,56.3121013 C304.156,54.1011013 301.401,53.1441013 298.889,53.9811013 L297,54.6111013 C297,54.6111013 298,55.6111013 302,57.6111013 C306,59.6111013 306,65.6111013 306,76.6111013 C306,87.6111013 304,95.6111013 301,97.6111013 C298,99.6111013 302,101.611101 303,104.611101 C304,107.611101 311,111.611101 312,117.611101 C312.357,119.756101 310.924,119.852101 309.148,119.263101 C302.378,109.748101 289.586,95.0881013 270,85.6111013 C239,70.6111013 206,72.6111013 171,82.6111013 C159.84,85.7991013 151.944,91.3291013 146.351,97.3791013 C149.432,92.8611013 153.252,88.4551013 158,84.6111013 C179,67.6111013 213,64.6111013 244,71.6111013 C245,71.6111013 229,64.6111013 219,63.6111013 C209,62.6111013 217,50.6111013 231,44.6111013 C249.956,36.4871013 277.146,44.2351013 278.586,44.6551013 C282.479,46.0611013 286.346,47.6971013 290,49.6111013 Z M357.467,267.271101 C360.689,264.311101 362.617,261.169101 363.737,258.219101 C362.719,268.694101 361.984,280.982101 361.535,289.808101 C360.03,288.728101 358.605,287.710101 357.255,286.748101 C357.413,282.151101 357.567,275.216101 357.467,267.271101 Z M355.949,239.888101 C360.442,237.404101 363.558,234.575101 365.698,231.712101 C365.416,237.150101 365.111,242.113101 364.795,246.416101 C364.69,245.900101 364.605,245.611101 364.605,245.611101 C362.524,252.895101 359.922,258.428101 357.379,262.581101 C357.195,255.296101 356.776,247.432101 355.949,239.888101 Z M386,307.611101 C379.156,302.579101 373.218,298.246101 368.034,294.494101 C367.541,280.674101 368.048,260.275101 371,239.611101 C377,197.611101 371,141.611101 366,114.611101 C362.397,95.1561013 355.681,82.9721013 352.207,77.6801013 C353.065,77.3981013 353.005,69.0481013 340,48.6111013 C329,30.6111013 311,21.6111013 311,21.6111013 C311,21.6111013 316.273,38.3101013 299.01,37.3671013 C297.859,37.3041013 296.608,37.1631013 295.249,36.9331013 C290.78,36.1781013 286.898,34.6661013 283.197,33.6281013 C280.42,32.8491013 277.744,32.3371013 275,32.6111013 C265,33.6111013 256,34.6111013 251,28.6111013 C246.473,23.1791013 259.439,10.7401013 276,15.6111013 C293,20.6111013 298.236,16.8471013 296,14.6111013 C297,14.6111013 279,3.61110132 251,0.611101325 C223.049,-2.38389868 183.141,5.58510132 150.174,25.5081013 C141.81,26.9291013 135.336,28.9431013 132,30.6111013 C124,34.6111013 102.817,45.2031013 98,47.6111013 C94,49.6111013 94,50.6111013 98,53.6111013 C102,56.6111013 115,63.6111013 115,63.6111013 C115,63.6111013 117.067,65.0521013 120.162,65.5041013 C120.105,65.5311013 120.049,65.5621013 120,65.6111013 C118,67.6111013 118,74.6111013 109,83.6111013 C100,92.6111013 92,95.6111013 91,98.6111013 C90.637,99.7011013 90.406,100.789101 90.259,101.736101 C90.173,101.694101 90.077,101.657101 90,101.611101 C90,101.611101 87,115.611101 96,118.611101 C104.833,121.555101 122.329,126.438101 129.592,147.418101 C126.954,154.478101 125.689,165.165101 138.943,170.151101 C139.75,172.573101 140.452,175.323101 141,178.611101 C141,178.812101 141,178.482101 141.042,177.779101 C143.728,196.670101 150.979,217.961101 155,227.611101 C160,239.611101 167,246.611101 172,254.611101 C177,262.611101 179,269.611101 185,271.611101 C191,273.611101 193,274.611101 199,276.611101 C199.328,276.720101 199.683,276.819101 200.054,276.911101 C200.165,279.641101 200.432,286.274101 200.654,292.625101 C190.601,298.252101 160.163,314.588101 139,327.611101 C113,343.611101 108,347.611101 108,347.611101 C108,347.611101 105.607,344.439101 97.282,354.403101 C95.432,355.412101 93.61,356.771101 92,358.611101 C63.506,389.818101 67.691,441.267101 74.266,471.136101 C61.643,507.553101 59,535.611101 59,535.611101 C59,535.611101 163.011,534.575101 161.989,534.647101 C179.617,412.143101 241.212,328.339101 249.954,316.953101 C250.307,316.838101 250.66,316.721101 251,316.611101 C291,303.611101 279,295.611101 273,339.611101 C272,357.611101 288,320.611101 296,306.611101 C304,292.611101 317,281.611101 328,289.611101 C339,297.611101 383,341.611101 404,369.611101 C425,397.611101 426,406.611101 430,402.611101 C434,398.611101 456,382.611101 460,381.611101 C464,380.611101 420,332.611101 386,307.611101 L386,307.611101 Z" id="Fill-6" fill="#2D2E2C"></path>
                <path d="M328,161.611101 C332.743,156.868101 330,150.611101 330,150.611101 C330,150.611101 328,160.611101 324,155.611101 C320.254,150.928101 320.016,144.492101 320.001,143.694101 C320.024,155.653101 325.007,164.604101 328,161.611101" id="Fill-7" fill="#2D2E2C"></path>
                <path d="M320,143.611101 C320,143.611101 320,143.640101 320.001,143.694101 C320.001,143.666101 320,143.639101 320,143.611101" id="Fill-8" fill="#2D2E2C"></path>
                <path d="M259,152.611101 C259,152.611101 262,151.611101 263,151.611101 C263,151.611101 260,149.611101 259,152.611101" id="Fill-9" fill="#2D2E2C"></path>
                <path d="M241,149.611101 C241,148.197101 243,147.611101 244,148.611101 C245,149.611101 244,151.611101 243,151.611101 C242,151.611101 241,150.611101 241,149.611101" id="Fill-10" fill="#FFFFFE"></path>
                <path d="M168.089,147.837101 C168.089,146.216101 170.38,145.546101 171.525,146.691101 C172.671,147.837101 171.525,150.128101 170.38,150.128101 C169.234,150.128101 168.089,148.982101 168.089,147.837101" id="Fill-11" fill="#FFFFFE"></path>
                <path d="M264.954,372.450101 L282.401,353.185101 C282.607,352.958101 282.59,352.606101 282.362,352.400101 C282.135,352.195101 281.783,352.211101 281.577,352.439101 L264.204,371.622101 L246.831,352.439101 C246.625,352.212101 246.273,352.196101 246.046,352.400101 C245.818,352.606101 245.801,352.958101 246.007,353.185101 L263.454,372.450101 L246.007,391.715101 C245.801,391.942101 245.818,392.294101 246.046,392.500101 C246.152,392.595101 246.286,392.643101 246.419,392.643101 C246.57,392.643101 246.721,392.582101 246.831,392.461101 L264.204,373.278101 L281.577,392.461101 C281.687,392.582101 281.838,392.643101 281.989,392.643101 C282.122,392.643101 282.256,392.595101 282.362,392.500101 C282.59,392.294101 282.607,391.942101 282.401,391.715101 L264.954,372.450101" id="Fill-12" fill="#2D2E2C"></path>
                <polygon id="Fill-13" fill="#2D2E2C" points="442.611 458.343101 443.723 458.343101 443.723 453.729101 442.611 453.729101"></polygon>
                <polygon id="Fill-14" fill="#2D2E2C" points="442.611 473.502101 443.723 473.502101 443.723 468.887101 442.611 468.887101"></polygon>
                <polygon id="Fill-15" fill="#2D2E2C" points="442.611 465.923101 443.723 465.923101 443.723 461.308101 442.611 461.308101"></polygon>
                <polygon id="Fill-16" fill="#2D2E2C" points="442.611 450.765101 443.723 450.765101 443.723 446.150101 442.611 446.150101"></polygon>
                <polygon id="Fill-17" fill="#2D2E2C" points="442.611 443.186101 443.723 443.186101 443.723 438.571101 442.611 438.571101"></polygon>
                <polygon id="Fill-18" fill="#2D2E2C" points="442.611 344.661101 443.723 344.661101 443.723 339.144101 442.611 339.144101"></polygon>
                <polygon id="Fill-19" fill="#2D2E2C" points="442.611 511.396101 443.723 511.396101 443.723 506.781101 442.611 506.781101"></polygon>
                <polygon id="Fill-20" fill="#2D2E2C" points="442.611 503.817101 443.723 503.817101 443.723 499.203101 442.611 499.203101"></polygon>
                <polygon id="Fill-21" fill="#2D2E2C" points="442.611 435.607101 443.723 435.607101 443.723 430.993101 442.611 430.993101"></polygon>
                <polygon id="Fill-22" fill="#2D2E2C" points="442.611 481.081101 443.723 481.081101 443.723 476.465101 442.611 476.465101"></polygon>
                <polygon id="Fill-23" fill="#2D2E2C" points="442.611 488.660101 443.723 488.660101 443.723 484.045101 442.611 484.045101"></polygon>
                <polygon id="Fill-24" fill="#2D2E2C" points="442.611 496.238101 443.723 496.238101 443.723 491.624101 442.611 491.624101"></polygon>
                <polygon id="Fill-25" fill="#2D2E2C" points="442.611 420.450101 443.723 420.450101 443.723 415.835101 442.611 415.835101"></polygon>
                <polygon id="Fill-26" fill="#2D2E2C" points="442.611 359.818101 443.723 359.818101 443.723 355.204101 442.611 355.204101"></polygon>
                <polygon id="Fill-27" fill="#2D2E2C" points="442.611 374.976101 443.723 374.976101 443.723 370.361101 442.611 370.361101"></polygon>
                <polygon id="Fill-28" fill="#2D2E2C" points="442.611 367.397101 443.723 367.397101 443.723 362.783101 442.611 362.783101"></polygon>
                <polygon id="Fill-29" fill="#2D2E2C" points="442.611 519.630101 443.723 519.630101 443.723 514.360101 442.611 514.360101"></polygon>
                <polygon id="Fill-30" fill="#2D2E2C" points="442.611 352.240101 443.723 352.240101 443.723 347.625101 442.611 347.625101"></polygon>
                <polygon id="Fill-31" fill="#2D2E2C" points="442.611 382.555101 443.723 382.555101 443.723 377.940101 442.611 377.940101"></polygon>
                <polygon id="Fill-32" fill="#2D2E2C" points="442.611 428.028101 443.723 428.028101 443.723 423.414101 442.611 423.414101"></polygon>
                <polygon id="Fill-33" fill="#2D2E2C" points="442.611 405.292101 443.723 405.292101 443.723 400.677101 442.611 400.677101"></polygon>
                <polygon id="Fill-34" fill="#2D2E2C" points="442.611 412.871101 443.723 412.871101 443.723 408.256101 442.611 408.256101"></polygon>
                <polygon id="Fill-35" fill="#2D2E2C" points="442.611 390.134101 443.723 390.134101 443.723 385.519101 442.611 385.519101"></polygon>
                <polygon id="Fill-36" fill="#2D2E2C" points="442.611 397.713101 443.723 397.713101 443.723 393.098101 442.611 393.098101"></polygon>
                <polygon id="Fill-37" fill="#2D2E2C" points="263.278 456.862101 264.389 456.862101 264.389 452.247101 263.278 452.247101"></polygon>
                <polygon id="Fill-38" fill="#2D2E2C" points="263.278 472.019101 264.389 472.019101 264.389 467.405101 263.278 467.405101"></polygon>
                <polygon id="Fill-39" fill="#2D2E2C" points="263.278 464.441101 264.389 464.441101 264.389 459.826101 263.278 459.826101"></polygon>
                <polygon id="Fill-40" fill="#2D2E2C" points="263.278 449.283101 264.389 449.283101 264.389 444.669101 263.278 444.669101"></polygon>
                <polygon id="Fill-41" fill="#2D2E2C" points="263.278 441.704101 264.389 441.704101 264.389 437.090101 263.278 437.090101"></polygon>
                <polygon id="Fill-42" fill="#2D2E2C" points="263.278 509.914101 264.389 509.914101 264.389 505.299101 263.278 505.299101"></polygon>
                <polygon id="Fill-43" fill="#2D2E2C" points="263.278 502.335101 264.389 502.335101 264.389 497.720101 263.278 497.720101"></polygon>
                <polygon id="Fill-44" fill="#2D2E2C" points="263.278 434.125101 264.389 434.125101 264.389 429.510101 263.278 429.510101"></polygon>
                <polygon id="Fill-45" fill="#2D2E2C" points="263.278 479.598101 264.389 479.598101 264.389 474.984101 263.278 474.984101"></polygon>
                <polygon id="Fill-46" fill="#2D2E2C" points="263.278 487.177101 264.389 487.177101 264.389 482.562101 263.278 482.562101"></polygon>
                <polygon id="Fill-47" fill="#2D2E2C" points="263.278 494.757101 264.389 494.757101 264.389 490.141101 263.278 490.141101"></polygon>
                <polygon id="Fill-48" fill="#2D2E2C" points="263.278 418.967101 264.389 418.967101 264.389 414.353101 263.278 414.353101"></polygon>
                <polygon id="Fill-49" fill="#2D2E2C" points="263.278 358.337101 264.389 358.337101 264.389 353.721101 263.278 353.721101"></polygon>
                <polygon id="Fill-50" fill="#2D2E2C" points="263.278 373.494101 264.389 373.494101 264.389 368.880101 263.278 368.880101"></polygon>
                <polygon id="Fill-51" fill="#2D2E2C" points="263.278 365.916101 264.389 365.916101 264.389 361.300101 263.278 361.300101"></polygon>
                <polygon id="Fill-52" fill="#2D2E2C" points="263.278 518.148101 264.389 518.148101 264.389 512.879101 263.278 512.879101"></polygon>
                <polygon id="Fill-53" fill="#2D2E2C" points="263.278 381.073101 264.389 381.073101 264.389 376.459101 263.278 376.459101"></polygon>
                <polygon id="Fill-54" fill="#2D2E2C" points="263.278 426.547101 264.389 426.547101 264.389 421.931101 263.278 421.931101"></polygon>
                <polygon id="Fill-55" fill="#2D2E2C" points="263.278 403.809101 264.389 403.809101 264.389 399.195101 263.278 399.195101"></polygon>
                <polygon id="Fill-56" fill="#2D2E2C" points="263.278 411.388101 264.389 411.388101 264.389 406.774101 263.278 406.774101"></polygon>
                <polygon id="Fill-57" fill="#2D2E2C" points="263.278 388.652101 264.389 388.652101 264.389 384.037101 263.278 384.037101"></polygon>
                <polygon id="Fill-58" fill="#2D2E2C" points="263.278 396.231101 264.389 396.231101 264.389 391.616101 263.278 391.616101"></polygon>
                <polyline id="Fill-59" fill="#2D2E2C" points="367.289 377.940101 352.759 367.262101 353.5 385.048101 367.289 377.940101"></polyline>
                <path d="M289.773,432.677101 C289.229,431.529101 288.703,430.465101 288.198,429.482101 C291.491,423.805101 295.092,418.331101 298.97,413.070101 L360.633,382.111101 L380.469,415.401101 L341.787,462.739101 L336.541,458.446101 L332.523,476.024101 L348.546,468.270101 L342.934,463.677101 L381.275,416.756101 L441.64,518.062101 C377.469,517.915101 321.146,483.747101 289.773,432.677101 Z M306.439,518.436101 C306.342,480.059101 298.69,453.606101 292.123,437.951101 C298.779,448.042101 306.502,457.536101 315.247,466.281101 C346.406,497.439101 387.014,515.708101 430.606,518.436101 L306.439,518.436101 Z M92.317,518.436101 L267.532,480.569101 C264.88,492.835101 263.503,505.469101 263.469,518.312101 L264.21,518.312101 C264.246,505.299101 265.683,492.611101 268.375,480.386101 L283.877,477.037101 L285.482,483.515101 L299.355,472.362101 L281.751,468.459101 L283.52,475.597101 L268.738,478.792101 C272.674,461.674101 279.072,445.488101 287.545,430.629101 C288.195,431.726101 288.857,432.816101 289.532,433.901101 C296.379,448.669101 305.591,476.339101 305.699,518.436101 L92.317,518.436101 Z M287.04,429.783101 C278.237,445.129101 271.794,461.677101 267.889,478.975101 L91.989,516.990101 L282.43,421.375101 C283.891,424.215101 285.424,427.020101 287.04,429.783101 Z M297.313,413.902101 C293.87,418.656101 290.676,423.557101 287.736,428.591101 C285.591,424.511101 283.917,421.997101 283.205,420.986101 L297.313,413.902101 Z M440.721,340.243101 L361.2,380.168101 L358.583,375.776101 C358.373,375.424101 357.918,375.308101 357.567,375.518101 C357.216,375.728101 357.101,376.182101 357.31,376.534101 L359.872,380.835101 L300.973,410.406101 C333.247,368.281101 383.826,340.896101 440.721,340.243101 Z M381.467,414.180101 L361.961,381.445101 L440.396,342.065101 L381.467,414.180101 Z M382.273,415.535101 L443.74,340.313101 C443.962,340.043101 443.964,339.654101 443.745,339.381101 C443.525,339.106101 443.145,339.024101 442.835,339.181101 L442.239,339.480101 C394.546,339.625101 349.729,358.259101 315.988,391.999101 C309.91,398.078101 304.33,404.521101 299.251,411.271101 L85.65,518.515101 C85.343,518.670101 85.182,519.013101 85.261,519.348101 C85.34,519.682101 85.639,519.918101 85.982,519.918101 L443.167,519.918101 C443.434,519.918101 443.679,519.775101 443.811,519.544101 C443.942,519.312101 443.939,519.026101 443.804,518.798101 L382.273,415.535101 L382.273,415.535101 Z" id="Fill-60" fill="#2D2E2C"></path>
                <path d="M77.385,520.371101 C76.917,519.106101 76.188,517.206101 75.205,514.675101 C74.545,516.341101 74.027,518.235101 73.651,520.357101 L77.385,520.371101 Z M83.921,527.191101 L83.852,527.652101 C83.139,527.537101 81.997,527.548101 80.424,527.676101 C80.28,527.688101 79.984,527.736101 79.538,527.821101 C79.151,527.891101 78.853,527.928101 78.648,527.928101 C78.587,527.925101 78.549,527.879101 78.537,527.780101 C78.506,527.633101 78.492,527.547101 78.496,527.522101 L79.271,527.395101 C79.171,526.598101 78.99,525.607101 78.726,524.427101 C78.377,522.868101 78.083,521.971101 77.847,521.735101 C77.773,521.662101 77.089,521.617101 75.802,521.599101 C74.556,521.583101 73.719,521.599101 73.288,521.645101 C73.259,521.745101 73.091,522.320101 72.792,523.377101 C72.597,524.076101 72.501,524.644101 72.498,525.087101 C72.494,525.972101 72.538,526.498101 72.627,526.672101 C72.802,527.054101 73.32,527.312101 74.177,527.451101 L74.111,527.817101 C73.725,527.817101 73.162,527.773101 72.42,527.683101 C71.681,527.594101 71.124,527.549101 70.755,527.548101 C70.5,527.549101 70.125,527.585101 69.621,527.666101 C69.114,527.744101 68.729,527.788101 68.463,527.799101 L68.331,527.411101 C68.568,527.387101 68.917,527.323101 69.376,527.214101 C72.83,519.758101 74.558,515.247101 74.561,513.674101 C74.563,513.356101 74.291,513.198101 73.74,513.194101 C73.031,513.191101 72.595,513.167101 72.431,513.116101 C72.476,512.921101 72.564,512.791101 72.699,512.729101 C73.07,512.731101 73.626,512.757101 74.379,512.801101 C75.124,512.847101 75.693,512.867101 76.076,512.871101 C76.449,512.872101 77.011,512.829101 77.77,512.741101 C78.522,512.650101 79.088,512.605101 79.46,512.607037 L79.459,512.939101 C79.116,513.011101 78.583,513.090101 77.855,513.172101 C77.854,513.589101 77.97,514.154101 78.206,514.870101 C78.408,515.433101 78.607,516.000101 78.799,516.565101 C79.371,518.469101 79.941,520.377101 80.512,522.280101 C81.496,525.328101 82.279,526.948101 82.874,527.132101 C82.931,527.144101 83.283,527.163101 83.921,527.191101 L83.921,527.191101 Z" id="Fill-61" fill="#2D2E2C"></path>
                <path d="M457.604013,521.739101 C457.607,520.503101 457.078,519.625101 456.005,519.105101 C455.367,518.789101 454.187,518.524101 452.475,518.318101 L452.474,518.055101 C453.638,517.932101 454.445,517.663101 454.89,517.249101 C455.334,516.832101 455.562,516.193101 455.566,515.330101 C455.571,514.706101 455.344,514.132101 454.886,513.602101 C454.351,512.997101 453.672,512.693101 452.845,512.690101 C452.613,512.691101 452.393,512.714101 452.176,512.769101 C451.909,514.288101 451.771,516.175101 451.76,518.429101 C451.76,519.008101 451.789,519.882101 451.862,521.047101 C451.934,522.214101 451.968,523.092101 451.967,523.680101 C451.964,524.230101 452.199,524.668101 452.676,525.000101 C453.153,525.332101 453.771,525.498101 454.543,525.500142 C455.664,525.505101 456.488,525.054101 457.017,524.148101 C457.402,523.494101 457.599,522.690101 457.604013,521.739101 Z M461.000059,522.099101 C460.995,523.272101 460.311,524.222101 458.944,524.960101 C457.699,525.646101 456.243,525.985101 454.574,525.973101 C454.035,525.972101 453.25,525.922101 452.207,525.816101 C451.167,525.713101 450.379,525.661101 449.845,525.658101 C449.645,525.658101 449.362,525.675101 449.005,525.718101 C448.643,525.762101 448.379,525.788101 448.21,525.797101 L448.119,525.422101 C448.521,525.443101 448.785,525.402101 448.922,525.292101 C448.974,525.262101 449.073,524.644101 449.234,523.443101 C449.39,522.236101 449.472,521.528101 449.474,521.310101 C449.446,520.465101 449.336,519.109101 449.146,517.235101 C448.971,515.472101 448.887,514.127101 448.891,513.199101 C448.893,512.816101 448.434,512.657101 447.511,512.715101 L447.516,512.353101 C449.523,512.454101 450.561,512.501101 450.639,512.503101 C451.084,512.502101 451.727,512.457101 452.569,512.361101 C453.413,512.269101 454.056,512.220101 454.502,512.222971 C455.68,512.228101 456.714,512.501101 457.597,513.040101 C458.527,513.615101 458.991,514.315101 458.988,515.145101 C458.986,515.934101 458.55,516.579101 457.669,517.080101 C457.149,517.390101 456.229,517.734101 454.907,518.097101 C455.245,518.135101 455.757,518.191101 456.447,518.269101 C457.705,518.463101 458.771,518.919101 459.657,519.632101 C460.557,520.379101 461.006,521.202101 461.000059,522.099101 L461.000059,522.099101 Z" id="Fill-62" fill="#2D2E2C"></path>
                <path d="M284.068,405.808101 C284.251,401.852101 283.175,400.451101 280.576,398.071101 C279.85,397.407101 279.097,396.964101 278.089,396.961101 C277.808,396.963101 277.538,396.990101 277.273,397.058101 C276.95,398.907101 276.78,401.205101 276.767,403.951101 C276.767,404.655101 276.804,405.718101 276.893,407.137101 C276.979,408.559101 277.021,409.630101 277.021,410.344101 C277.017,411.014101 277.303,411.547101 277.883,411.952101 C278.465,412.356101 279.218,412.557101 280.156,412.560168 C281.522,412.567101 282.525,412.019101 283.17,410.914101 C283.64,410.118101 284.014,406.965101 284.068,405.808101 Z M285.517,411.902101 C284.063,412.841101 282.229,413.151101 280.195,413.137101 C279.539,413.136101 278.583,413.075101 277.313,412.947101 C276.047,412.820101 274.192,412.757101 273.542,412.753101 C273.299,412.754101 272.955,412.774101 272.52,412.826101 C272.079,412.881101 271.758,412.911101 271.552,412.924101 L271.441,412.465101 C271.93,412.491101 272.252,412.442101 272.418,412.308101 C272.481,412.271101 273.496,411.518101 273.692,410.055101 C273.881,408.586101 273.981,407.723101 273.983,407.460101 C273.951,406.428101 273.816,404.779101 273.584,402.496101 C273.371,400.349101 273.268,398.712101 273.273,397.581101 C273.276,397.114101 272.717,396.920101 271.593,396.992101 L271.599,396.550101 C274.044,396.674101 275.308,396.730101 275.402,396.733101 C275.944,396.732101 276.728,396.676101 277.754,396.559101 C278.781,396.448101 279.564,396.389101 280.107,396.391992 C281.542,396.399101 282.802,396.727101 283.877,397.387101 C290.319,401.343101 289.426,409.381101 285.517,411.902101 L285.517,411.902101 Z" id="Fill-63" fill="#2D2E2C"></path>
                <path d="M460.579,319.691101 C460.491,319.834101 460.272,320.407101 459.909,321.408101 C459.621,322.177101 459.296,322.679101 458.94,322.914101 C458.862,322.175101 458.436,321.611101 457.663,321.215101 C456.887,320.820101 455.944,320.629101 454.837,320.644101 C453.004,320.671101 451.824,321.385101 451.301,322.783101 C451.061,323.423101 450.955,324.580101 450.979,326.258101 C450.998,327.582101 451.514,328.882101 452.522,330.162101 C453.754,331.688101 455.268,332.439101 457.068,332.412101 C458.54,332.390101 459.509,332.012101 459.979,331.270101 L460.581,331.556101 C460.095,332.123101 459.322,332.596101 458.271,332.979101 C457.218,333.359101 456.193,333.556101 455.202,333.573101 C450.425,333.643101 448,331.312101 447.931,326.580101 C447.904,324.883101 448.585,323.368101 449.973,322.032101 C451.521,320.550101 453.521,319.796101 455.967,319.757101 C456.326,319.753101 456.87,319.770101 457.59,319.814101 C458.309,319.861101 458.844,319.882101 459.191,319.875101 C459.556,319.870101 460.02,319.808101 460.579,319.691101" id="Fill-64" fill="#2D2E2C"></path>
                <path d="M310.775,547.822101 C310.488,547.879101 310.081,547.911101 309.547,547.917101 C308.671,547.924101 307.375,547.849101 305.664,547.689101 C305.566,547.698101 305.446,547.703101 305.302,547.694101 C305.1,547.697101 304.97,547.697101 304.925,547.697101 C304.296,547.702101 303.473,547.797101 302.452,547.983101 L302.375,547.694101 C302.615,547.643101 302.967,547.560101 303.424,547.448101 C303.706,546.932101 303.838,545.475101 303.815,543.090101 C303.805,541.965101 303.752,540.877101 303.655,539.813101 C303.521,538.047101 303.314,537.132101 303.035,537.072101 C302.914,537.047101 302.539,537.047101 301.915,537.082101 L301.858,536.724101 C303.04,536.713101 304.557,536.680101 306.41,536.625101 C308.503,536.550101 310.016,536.510101 310.941,536.499101 C310.422,537.437101 310.181,538.206101 310.222,538.815101 L309.843,538.818101 C309.658,538.267101 309.203,537.835101 308.479,537.517101 C307.826,537.241101 307.092,537.100101 306.288,537.111101 C306.107,537.112101 305.938,537.122101 305.781,537.143101 C305.666,537.703101 305.615,538.504101 305.623,539.529101 C305.626,539.965101 305.653,540.691101 305.698,541.713101 C307.155,541.727101 308.675,541.471101 310.262,540.953101 C310.285,541.025101 310.299,541.132101 310.301,541.271101 C310.302,541.418101 310.271,541.749101 310.202,542.263101 C310.144,542.723101 310.13,543.050101 310.156,543.245101 C309.854,543.015101 309.549,542.793101 309.247,542.579101 C308.665,542.240101 307.929,542.078101 307.037,542.085101 C306.629,542.088101 306.183,542.131101 305.703,542.211101 L305.727,544.860101 C305.734,545.625101 305.79,546.176101 305.889,546.514101 C305.937,546.690101 306.076,546.795101 306.306,546.827101 C306.342,546.827101 306.564,546.826101 306.974,546.818101 C309.636,546.797101 311.101,546.498101 311.373,545.924101 L311.681,545.962101 C311.561,546.324101 311.494,546.523101 311.47,546.557101 C311.245,546.983101 311.012,547.406101 310.775,547.822101" id="Fill-65" fill="#2D2E2C"></path>
                <path d="M375.731,534.553101 C375.589,534.553101 375.447,534.500101 375.339,534.391101 L371.055,530.107101 L312.001,530.107101 C311.886,530.107101 311.773,530.071101 311.679,530.004101 L306.814,526.530101 L301.95,530.004101 C301.855,530.071101 301.743,530.107101 301.627,530.107101 L201.075,530.107101 L196.792,534.391101 C196.586,534.596101 196.258,534.609101 196.037,534.420101 L191.005,530.107101 L89.688,530.107101 C89.381,530.107101 89.132,529.859101 89.132,529.551101 C89.132,529.245101 89.381,528.996101 89.688,528.996101 L191.211,528.996101 C191.344,528.996101 191.472,529.044101 191.573,529.130101 L196.369,533.241101 L200.452,529.159101 C200.556,529.054101 200.697,528.996101 200.845,528.996101 L301.449,528.996101 L306.492,525.394101 C306.684,525.257101 306.944,525.257101 307.137,525.394101 L312.18,528.996101 L371.285,528.996101 C371.433,528.996101 371.574,529.054101 371.678,529.159101 L375.731,533.213101 L379.414,529.529101 C379.519,529.425101 379.659,529.367101 379.808,529.367101 L437.979,529.367101 C438.286,529.367101 438.535,529.615101 438.535,529.923101 C438.535,530.229101 438.286,530.478101 437.979,530.478101 L380.037,530.478101 L376.125,534.391101 C376.016,534.500101 375.874,534.553101 375.731,534.553101" id="Fill-66" fill="#2D2E2C"></path>
                <path d="M77.385,520.371101 C76.917,519.106101 76.188,517.206101 75.205,514.675101 C74.545,516.341101 74.027,518.235101 73.651,520.357101 L77.385,520.371101 Z M83.921,527.191101 L83.852,527.652101 C83.139,527.537101 81.997,527.548101 80.424,527.676101 C80.28,527.688101 79.984,527.736101 79.538,527.821101 C79.151,527.891101 78.853,527.928101 78.648,527.928101 C78.587,527.925101 78.549,527.879101 78.537,527.780101 C78.506,527.633101 78.492,527.547101 78.496,527.522101 L79.271,527.395101 C79.171,526.598101 78.99,525.607101 78.726,524.427101 C78.377,522.868101 78.083,521.971101 77.847,521.735101 C77.773,521.662101 77.089,521.617101 75.802,521.599101 C74.556,521.583101 73.719,521.599101 73.288,521.645101 C73.259,521.745101 73.091,522.320101 72.792,523.377101 C72.597,524.076101 72.501,524.644101 72.498,525.087101 C72.494,525.972101 72.538,526.498101 72.627,526.672101 C72.802,527.054101 73.32,527.312101 74.177,527.451101 L74.111,527.817101 C73.725,527.817101 73.162,527.773101 72.42,527.683101 C71.681,527.594101 71.124,527.549101 70.755,527.548101 C70.5,527.549101 70.125,527.585101 69.621,527.666101 C69.114,527.744101 68.729,527.788101 68.463,527.799101 L68.331,527.411101 C68.568,527.387101 68.917,527.323101 69.376,527.214101 C72.83,519.758101 74.558,515.247101 74.561,513.674101 C74.563,513.356101 74.291,513.198101 73.74,513.194101 C73.031,513.191101 72.595,513.167101 72.431,513.116101 C72.476,512.921101 72.564,512.791101 72.699,512.729101 C73.07,512.731101 73.626,512.757101 74.379,512.801101 C75.124,512.847101 75.693,512.867101 76.076,512.871101 C76.449,512.872101 77.011,512.829101 77.77,512.741101 C78.522,512.650101 79.088,512.605101 79.46,512.607037 L79.459,512.939101 C79.116,513.011101 78.583,513.090101 77.855,513.172101 C77.854,513.589101 77.97,514.154101 78.206,514.870101 C78.408,515.433101 78.607,516.000101 78.799,516.565101 C79.371,518.469101 79.941,520.377101 80.512,522.280101 C81.496,525.328101 82.279,526.948101 82.874,527.132101 C82.931,527.144101 83.283,527.163101 83.921,527.191101 L83.921,527.191101 Z" id="Fill-67" fill="#F2E8D3"></path>
                <path d="M162.837,528.996101 L89.688,528.996101 C89.381,528.996101 89.132,529.245101 89.132,529.551101 C89.132,529.859101 89.381,530.107101 89.688,530.107101 L162.665,530.107101 L162.837,528.996101" id="Fill-68" fill="#F2E8D3"></path>
                <path d="M164.611,518.436101 L92.317,518.436101 L167.837,502.115101 L168.184,500.523101 L91.989,516.990101 L174.259,475.684101 L174.861,473.724101 L85.65,518.515101 C85.343,518.669101 85.182,519.013101 85.261,519.348101 C85.34,519.682101 85.639,519.918101 85.982,519.918101 L164.347,519.918101 L164.611,518.436101" id="Fill-69" fill="#F2E8D3"></path>
                <path d="M386.8,349.242101 C398.593,345.340101 410.924,342.628101 423.653,341.264101 L422.958,340.569101 C410.365,341.946101 398.062,344.631101 386.207,348.555101 C386.399,348.778101 386.6,349.009101 386.8,349.242101" id="Fill-70" fill="#F2E8D3"></path>
                <path d="M411.429,379.855101 L434.279,351.890101 L433.227,350.838101 L410.531,378.612101 C410.835,379.030101 411.134,379.444101 411.429,379.855101" id="Fill-71" fill="#F2E8D3"></path>
                <path d="M398.467,363.116101 L429.782,347.393101 L428.678,346.289101 L397.505,361.940101 C397.824,362.330101 398.146,362.722101 398.467,363.116101" id="Fill-72" fill="#F2E8D3"></path>
                <polygon id="Fill-73" fill="#F2E8D3" points="442.611 374.976101 443.723 374.976101 443.723 370.361101 442.611 370.361101"></polygon>
                <polygon id="Fill-74" fill="#F2E8D3" points="442.611 367.397101 443.723 367.397101 443.723 362.783101 442.611 362.783101"></polygon>
                <polygon id="Fill-75" fill="#F2E8D3" points="442.611 382.555101 443.723 382.555101 443.723 377.940101 442.611 377.940101"></polygon>
                <polygon id="Fill-76" fill="#F2E8D3" points="442.611 390.134101 443.723 390.134101 443.723 385.519101 442.611 385.519101"></polygon>
                <path d="M20.95,465.815101 L160.164,465.815101 L160.164,330.141101 L20.95,330.141101 L20.95,465.815101 Z M20.95,297.444101 L74.112,297.444101 L74.112,245.957101 L20.95,245.957101 L20.95,297.444101 Z M55.19,309.087101 L61.948,309.087101 L61.948,298.796101 L55.19,298.796101 L55.19,309.087101 Z M63.299,309.087101 L74.112,309.087101 L74.112,298.796101 L63.299,298.796101 L63.299,309.087101 Z M20.95,328.790101 L53.838,328.790101 L53.838,298.796101 L20.95,298.796101 L20.95,328.790101 Z M55.19,328.790101 L74.112,328.790101 L74.112,310.438101 L55.19,310.438101 L55.19,328.790101 Z M75.464,328.790101 L160.164,328.790101 L160.164,245.957101 L75.464,245.957101 L75.464,328.790101 Z M160.839,244.605101 L20.274,244.605101 C19.901,244.605101 19.598,244.908101 19.598,245.281101 L19.598,466.491101 C19.598,466.864101 19.901,467.167101 20.274,467.167101 L160.839,467.167101 C161.212,467.167101 161.515,466.864101 161.515,466.491101 L161.515,245.281101 C161.515,244.908101 161.212,244.605101 160.839,244.605101 L160.839,244.605101 Z" id="Fill-77" fill="#2D2E2C"></path>
                <polyline id="Fill-78" fill="#2D2E2C" points="69.927 322.922101 74.789 330.606101 75.855 330.606101 70.994 322.922101 69.927 322.922101"></polyline>
                <polyline id="Fill-79" fill="#2D2E2C" points="77.069 334.211101 81.93 341.894101 82.997 341.894101 78.135 334.211101 77.069 334.211101"></polyline>
                <polyline id="Fill-80" fill="#2D2E2C" points="62.786 311.633101 67.647 319.318101 68.713 319.318101 63.852 311.633101 62.786 311.633101"></polyline>
                <polyline id="Fill-81" fill="#2D2E2C" points="84.21 345.499101 89.072 353.182101 90.138 353.182101 85.277 345.499101 84.21 345.499101"></polyline>
                <polyline id="Fill-82" fill="#2D2E2C" points="41.361 277.769101 46.222 285.453101 47.289 285.453101 42.427 277.769101 41.361 277.769101"></polyline>
                <polyline id="Fill-83" fill="#2D2E2C" points="34.22 266.480101 39.081 274.165101 40.147 274.165101 35.286 266.480101 34.22 266.480101"></polyline>
                <polyline id="Fill-84" fill="#2D2E2C" points="55.644 300.345101 60.505 308.029101 61.572 308.029101 56.71 300.345101 55.644 300.345101"></polyline>
                <polyline id="Fill-85" fill="#2D2E2C" points="27.078 255.192101 31.939 262.877101 33.005 262.877101 28.144 255.192101 27.078 255.192101"></polyline>
                <polyline id="Fill-86" fill="#2D2E2C" points="48.502 289.057101 53.364 296.741101 54.43 296.741101 49.569 289.057101 48.502 289.057101"></polyline>
                <polyline id="Fill-87" fill="#2D2E2C" points="91.352 356.787101 96.213 364.470101 97.279 364.470101 92.418 356.787101 91.352 356.787101"></polyline>
                <polyline id="Fill-88" fill="#2D2E2C" points="98.494 368.075101 103.355 375.759101 104.421 375.759101 99.56 368.075101 98.494 368.075101"></polyline>
                <polyline id="Fill-89" fill="#2D2E2C" points="105.635 379.363101 110.497 387.048101 111.563 387.048101 106.701 379.363101 105.635 379.363101"></polyline>
                <polyline id="Fill-90" fill="#2D2E2C" points="141.343 435.804101 146.204 443.489101 147.271 443.489101 142.409 435.804101 141.343 435.804101"></polyline>
                <polyline id="Fill-91" fill="#2D2E2C" points="148.484 447.093101 153.346 454.777101 154.412 454.777101 149.551 447.093101 148.484 447.093101"></polyline>
                <path d="M161.67,466.250101 L156.692,458.382101 L155.626,458.382101 L160.909,466.732101 C160.995,466.868101 161.141,466.941101 161.29,466.941101 C161.373,466.941101 161.456,466.919101 161.53,466.872101 C161.741,466.739101 161.804,466.460101 161.67,466.250101" id="Fill-92" fill="#2D2E2C"></path>
                <path d="M21.385,245.350101 C21.174,245.483101 21.112,245.761101 21.245,245.972101 L24.798,251.588101 L25.864,251.588101 L22.006,245.490101 C21.873,245.280101 21.595,245.219101 21.385,245.350101" id="Fill-93" fill="#2D2E2C"></path>
                <polyline id="Fill-94" fill="#2D2E2C" points="119.918 401.940101 124.78 409.624101 125.846 409.624101 120.984 401.940101 119.918 401.940101"></polyline>
                <polyline id="Fill-95" fill="#2D2E2C" points="112.777 390.652101 117.638 398.336101 118.704 398.336101 113.843 390.652101 112.777 390.652101"></polyline>
                <polyline id="Fill-96" fill="#2D2E2C" points="134.201 424.516101 139.063 432.201101 140.129 432.201101 135.268 424.516101 134.201 424.516101"></polyline>
                <polyline id="Fill-97" fill="#2D2E2C" points="127.06 413.228101 131.921 420.912101 132.987 420.912101 128.126 413.228101 127.06 413.228101"></polyline>
                <path d="M20.723,466.491101 C20.274,466.491101 19.885,466.156101 19.83,465.699101 C19.77,465.205101 20.122,464.756101 20.616,464.695101 C52.742,460.788101 88.091,443.110101 115.175,417.405101 C143.604,390.424101 159.428,358.076101 158.586,328.654101 C156.757,264.618101 105.052,247.533101 74.788,247.533101 C59.543,247.533101 44.79,254.100101 34.312,265.550101 C25.549,275.126101 21.089,286.967101 22.072,298.040101 C24.291,323.009101 46.469,328.629101 54.063,328.629101 C63.93,328.629101 69.429,321.978101 71.335,319.118101 C73.328,316.129101 73.773,311.041101 72.393,307.019101 C71.621,304.768101 69.953,301.837101 66.393,300.649101 C61.894,299.151101 58.772,300.362101 57.354,302.000101 C56.363,303.142101 56.102,304.559101 56.672,305.699101 C58.031,308.420101 60.583,307.241101 60.869,307.098101 C61.315,306.877101 61.855,307.057101 62.078,307.502101 C62.301,307.947101 62.12,308.488101 61.675,308.711101 C61.563,308.765101 60.546,309.256101 59.245,309.256101 C57.963,309.256101 56.197,308.779101 55.06,306.506101 C54.158,304.701101 54.515,302.522101 55.992,300.819101 C57.792,298.742101 61.618,297.157101 66.963,298.940101 C70.286,300.048101 72.82,302.709101 74.098,306.435101 C75.67,311.016101 75.15,316.644101 72.834,320.118101 C68.529,326.576101 61.512,330.430101 54.063,330.430101 C46.041,330.430101 22.614,324.509101 20.277,298.200101 C19.249,286.625101 23.88,274.281101 32.982,264.335101 C43.801,252.512101 59.039,245.731101 74.788,245.731101 C84.081,245.731101 107.982,247.439101 129.166,263.257101 C148.789,277.908101 159.585,300.505101 160.389,328.603101 C161.243,358.536101 145.216,391.380101 116.417,418.712101 C89.061,444.674101 53.329,462.532101 20.833,466.485101 C20.796,466.491101 20.76,466.491101 20.723,466.491101" id="Fill-98" fill="#2D2E2C"></path>
                <polyline id="Fill-99" fill="#2D2E2C" points="148.471 242.524101 157.431 237.723101 148.202 233.784101 148.32 237.622101 32.749 237.622101 32.867 233.784101 23.638 237.723101 32.598 242.524101 32.721 238.522101 148.348 238.522101 148.471 242.524101"></polyline>
                <polyline id="Fill-100" fill="#2D2E2C" points="11.939 258.346101 15.994 258.346101 11.488 249.336101 6.983 258.346101 11.038 258.346101 11.038 318.717101 6.983 318.717101 11.488 327.727101 15.994 318.717101 11.939 318.717101 11.939 258.346101"></polyline>
                <polyline id="Fill-101" fill="#2D2E2C" points="174.13 258.346101 178.185 258.346101 173.679 249.336101 169.174 258.346101 173.229 258.346101 173.229 454.777101 169.174 454.777101 173.679 463.788101 178.185 454.777101 174.13 454.777101 174.13 258.346101"></polyline>
                <polyline id="Fill-102" fill="#2D2E2C" points="11.939 343.046101 15.994 343.046101 11.488 334.035101 6.983 343.046101 11.038 343.046101 11.038 455.678101 6.983 455.678101 11.488 464.689101 15.994 455.678101 11.939 455.678101 11.939 343.046101"></polyline>
                <path d="M180.663,245.731101 L160.839,245.731101 C160.59,245.731101 160.389,245.530101 160.389,245.281101 L160.389,229.061101 C160.389,228.812101 160.59,228.611101 160.839,228.611101 C161.088,228.611101 161.29,228.812101 161.29,229.061101 L161.29,244.830101 L180.663,244.830101 C180.912,244.830101 181.113,245.032101 181.113,245.281101 C181.113,245.530101 180.912,245.731101 180.663,245.731101" id="Fill-103" fill="#2D2E2C"></path>
                <path d="M20.274,245.731101 L0.451,245.731101 C0.202,245.731101 -2.84217094e-14,245.530101 -2.84217094e-14,245.281101 C-2.84217094e-14,245.032101 0.202,244.830101 0.451,244.830101 L19.823,244.830101 L19.823,229.061101 C19.823,228.812101 20.025,228.611101 20.274,228.611101 C20.523,228.611101 20.725,228.812101 20.725,229.061101 L20.725,245.281101 C20.725,245.530101 20.523,245.731101 20.274,245.731101" id="Fill-104" fill="#2D2E2C"></path>
                <path d="M160.839,483.611101 C160.59,483.611101 160.389,483.410101 160.389,483.161101 L160.389,466.941101 C160.389,466.692101 160.59,466.491101 160.839,466.491101 L180.663,466.491101 C180.912,466.491101 181.113,466.692101 181.113,466.941101 C181.113,467.190101 180.912,467.392101 180.663,467.392101 L161.29,467.392101 L161.29,483.161101 C161.29,483.410101 161.088,483.611101 160.839,483.611101" id="Fill-105" fill="#2D2E2C"></path>
                <path d="M20.274,483.611101 C20.025,483.611101 19.823,483.410101 19.823,483.161101 L19.823,467.392101 L0.451,467.392101 C0.202,467.392101 -2.84217094e-14,467.190101 -2.84217094e-14,466.941101 C-2.84217094e-14,466.692101 0.202,466.491101 0.451,466.491101 L20.274,466.491101 C20.523,466.491101 20.725,466.692101 20.725,466.941101 L20.725,483.161101 C20.725,483.410101 20.523,483.611101 20.274,483.611101" id="Fill-106" fill="#2D2E2C"></path>
                <path d="M161.732,466.611101 C161.732,466.611101 161.96,466.384101 161.913,466.310101 L162,466.005101 L162,314.368101 L160,315.138101 L160,323.703101 C160,320.902101 159.647,318.051101 159.308,315.603101 L157.679,316.537101 C158.14,320.115101 158.455,324.778101 158.566,328.654101 C158.571,328.838101 137.21,329.025101 137.21,329.025101 L134.928,330.611101 L158.603,330.611101 C158.848,355.611101 146.649,383.424101 124.636,407.781101 L120.984,401.611101 L119.918,401.611101 L124.006,408.236101 C121.212,411.293101 118.273,414.382101 115.175,417.323101 C101.932,429.892101 86.71,440.576101 70.858,448.634101 L71.119,450.542101 C87.329,442.370101 102.896,431.526101 116.417,418.695101 C119.542,415.728101 122.508,412.611101 125.328,409.611101 L125.846,409.611101 L125.552,409.283101 C146.018,386.769101 158,361.409101 160,337.351101 L160,463.868101 L156.692,458.611101 L155.626,458.611101 L160,465.553101 L160,465.611101 L73.229,465.611101 L73.417,467.611101 L160,467.611101 L160,480.990101 L161,480.538101 L161,467.611101 L176.674,467.611101 L176.94,466.611101 L161.732,466.611101" id="Fill-107" fill="#F2E8D3"></path>
                <polyline id="Fill-108" fill="#F2E8D3" points="97.279 364.470101 92.941 357.613101 92.298 358.282101 96.213 364.470101 97.279 364.470101"></polyline>
                <polyline id="Fill-109" fill="#F2E8D3" points="104.421 375.759101 99.56 368.075101 98.494 368.075101 103.355 375.759101 104.421 375.759101"></polyline>
                <polyline id="Fill-110" fill="#F2E8D3" points="142.409 435.804101 141.343 435.804101 146.204 443.489101 147.271 443.489101 142.409 435.804101"></polyline>
                <polyline id="Fill-111" fill="#F2E8D3" points="149.551 447.093101 148.484 447.093101 153.346 454.777101 154.412 454.777101 149.551 447.093101"></polyline>
                <polyline id="Fill-112" fill="#F2E8D3" points="135.268 424.516101 134.201 424.516101 139.063 432.201101 140.129 432.201101 135.268 424.516101"></polyline>
                <polyline id="Fill-113" fill="#F2E8D3" points="128.126 413.228101 127.06 413.228101 131.921 420.912101 132.987 420.912101 128.126 413.228101"></polyline>
                <polyline id="Fill-114" fill="#F2E8D3" points="118.704 398.336101 115.205 392.804101 114.658 393.625101 117.638 398.336101 118.704 398.336101"></polyline>
                <polyline id="Fill-115" fill="#F2E8D3" points="178.185 454.777101 174.13 454.777101 174.13 307.206101 173.229 307.706101 173.229 454.777101 169.174 454.777101 173.679 463.788101 178.185 454.777101"></polyline>
                <path d="M160.389,483.161101 C160.389,483.410101 160.59,483.611101 160.839,483.611101 C161.088,483.611101 161.29,483.410101 161.29,483.161101 L161.29,482.250101 L160.389,482.649101 L160.389,483.161101" id="Fill-116" fill="#F2E8D3"></path>
                <path d="M424.549,268.598101 L424.549,282.773101 C424.549,283.323101 424.565,283.733101 424.599,284.003101 C424.631,284.273101 424.706,284.502101 424.826,284.686101 C424.951,284.873101 425.156,285.014101 425.447,285.112101 C425.739,285.207101 426.149,285.288101 426.684,285.352101 L426.684,286.020101 L419.643,286.020101 L419.643,285.352101 C420.221,285.315101 420.651,285.233101 420.94,285.112101 C421.23,284.990101 421.444,284.797101 421.578,284.530101 C421.71,284.265101 421.774,283.892101 421.774,283.415101 L421.774,272.997101 C421.774,272.369101 421.602,271.940101 421.257,271.713101 C420.91,271.486101 420.372,271.342101 419.643,271.277101 L419.643,270.393101 C420.767,270.335101 421.644,270.160101 422.282,269.866101 C422.914,269.571101 423.458,269.148101 423.909,268.598101 L424.549,268.598101" id="Fill-117" fill="#2D2E2C"></path>
                <path d="M388.267,268.598101 L388.267,282.773101 C388.267,283.323101 388.284,283.733101 388.317,284.003101 C388.35,284.273101 388.425,284.502101 388.545,284.686101 C388.67,284.873101 388.875,285.014101 389.166,285.112101 C389.458,285.207101 389.868,285.288101 390.401,285.352101 L390.401,286.020101 L383.361,286.020101 L383.361,285.352101 C383.939,285.315101 384.37,285.233101 384.659,285.112101 C384.949,284.990101 385.163,284.797101 385.297,284.530101 C385.429,284.265101 385.493,283.892101 385.493,283.415101 L385.493,272.997101 C385.493,272.369101 385.319,271.940101 384.976,271.713101 C384.629,271.486101 384.091,271.342101 383.361,271.277101 L383.361,270.393101 C384.485,270.335101 385.362,270.160101 386.001,269.866101 C386.632,269.571101 387.177,269.148101 387.628,268.598101 L388.267,268.598101" id="Fill-118" fill="#2D2E2C"></path>
                <path d="M408.042,276.678101 C408.936,276.627101 409.659,276.987101 410.214,277.774101 C410.766,278.561101 411.088,279.739101 411.178,281.308101 C411.241,282.347101 411.181,283.248101 410.999,284.007101 C410.817,284.768101 410.552,285.338101 410.197,285.722101 C409.844,286.103101 409.438,286.304101 408.965,286.335101 C408.545,286.356101 408.157,286.269101 407.81,286.068101 C407.457,285.875101 407.136,285.549101 406.846,285.097101 C406.561,284.643101 406.323,284.094101 406.158,283.449101 C405.983,282.804101 405.872,282.045101 405.818,281.151101 C405.737,279.759101 405.891,278.677101 406.283,277.906101 C406.674,277.131101 407.261,276.724101 408.042,276.678101 Z M408.738,269.774101 C407.857,270.143101 407.049,270.642101 406.305,271.270101 C405.555,271.898101 404.91,272.616101 404.364,273.414101 C403.729,274.352101 403.278,275.369101 403.03,276.447101 C402.775,277.524101 402.694,278.753101 402.772,280.121101 C402.858,281.556101 403.177,282.805101 403.736,283.868101 C404.298,284.931101 405.041,285.736101 405.964,286.288101 C406.889,286.833101 407.911,287.070101 409.028,287.011101 C410.075,286.947101 411.014,286.633101 411.838,286.091101 C412.663,285.542101 413.296,284.809101 413.731,283.903101 C414.163,282.989101 414.354,281.995101 414.288,280.895101 C414.242,280.089101 414.063,279.352101 413.752,278.694101 C413.438,278.033101 413.035,277.473101 412.542,277.025101 C412.047,276.573101 411.483,276.233101 410.849,276.007101 C410.218,275.783101 409.546,275.692101 408.838,275.735101 C407.804,275.797101 406.843,276.168101 405.965,276.845101 C406.155,275.626101 406.508,274.529101 407.004,273.561101 C407.495,272.593101 408.137,271.785101 408.914,271.142101 C409.699,270.495101 410.573,270.053101 411.543,269.809101 L411.496,269.081101 C410.536,269.172101 409.615,269.404101 408.738,269.774101 L408.738,269.774101 Z" id="Fill-119" fill="#2D2E2C"></path>
                <path d="M438.021,268.986101 C438.577,268.963101 439.101,269.060101 439.584,269.292101 C440.063,269.523101 440.457,269.875101 440.745,270.358101 C441.04,270.832101 441.198,271.419101 441.238,272.103101 C441.267,272.652101 441.207,273.131101 441.071,273.543101 C440.937,273.949101 440.744,274.301101 440.493,274.586101 C440.244,274.872101 439.902,275.171101 439.464,275.490101 C438.634,275.007101 438.005,274.629101 437.584,274.370101 C437.16,274.100101 436.787,273.825101 436.457,273.519101 C436.122,273.225101 435.864,272.900101 435.68,272.548101 C435.49,272.196101 435.387,271.816101 435.364,271.406101 C435.333,270.711101 435.572,270.142101 436.097,269.705101 C436.623,269.266101 437.262,269.031101 438.021,268.986101 Z M439.124,278.784101 C439.657,279.095101 440.121,279.418101 440.522,279.751101 C440.924,280.079101 441.253,280.457101 441.518,280.879101 C441.781,281.310101 441.923,281.797101 441.947,282.350101 C441.978,282.894101 441.858,283.384101 441.592,283.827101 C441.332,284.262101 440.959,284.624101 440.491,284.890101 C440.018,285.155101 439.502,285.302101 438.947,285.332101 C437.938,285.380101 437.097,285.101101 436.429,284.498101 C435.749,283.885101 435.384,283.021101 435.328,281.912101 C435.279,280.916101 435.441,280.097101 435.829,279.479101 C436.203,278.858101 436.754,278.301101 437.471,277.814101 C438.042,278.148101 438.59,278.470101 439.124,278.784101 Z M433.974,270.778101 C433.593,271.483101 433.421,272.240101 433.459,273.015101 C433.501,273.890101 433.805,274.655101 434.365,275.333101 C434.928,276.003101 435.752,276.684101 436.859,277.393101 C434.559,278.747101 433.448,280.283101 433.534,282.000101 C433.574,282.748101 433.824,283.436101 434.28,284.077101 C434.737,284.715101 435.365,285.211101 436.16,285.564101 C436.963,285.912101 437.855,286.062101 438.834,286.010101 C439.863,285.963101 440.799,285.704101 441.627,285.233101 C442.446,284.766101 443.088,284.162101 443.533,283.407101 C443.991,282.655101 444.188,281.847101 444.148,280.990101 C444.092,279.826101 443.703,278.865101 442.991,278.106101 C442.277,277.355101 441.316,276.630101 440.109,275.927101 C440.692,275.595101 441.202,275.236101 441.636,274.855101 C442.053,274.473101 442.374,274.061101 442.58,273.614101 C442.788,273.175101 442.876,272.666101 442.845,272.094101 C442.813,271.407101 442.588,270.760101 442.174,270.163101 C441.761,269.558101 441.188,269.089101 440.463,268.748101 C439.732,268.411101 438.922,268.265101 438.037,268.307101 C437.123,268.353101 436.313,268.603101 435.606,269.045101 C434.894,269.487101 434.35,270.067101 433.974,270.778101 L433.974,270.778101 Z" id="Fill-120" fill="#2D2E2C"></path>
                <path d="M392.896,288.834101 C393.513,287.587101 394.13,286.131101 394.493,284.855101 L396.679,284.715101 C396.034,286.144101 395.18,287.615101 394.354,288.708101 L392.896,288.834101" id="Fill-121" fill="#2D2E2C"></path>
                <path d="M431.636,240.358101 C431.636,241.549101 432.839,242.352101 433.949,241.919101 C437.559,240.510101 439.772,237.047101 439.772,232.131101 C439.772,227.018101 436.746,222.950101 433.826,222.950101 C432.521,222.950101 431.636,224.097101 431.636,226.497101 L431.636,240.358101 Z M424.176,220.553101 C424.677,221.275101 424.537,222.257101 423.854,222.809101 C421.532,224.687101 419.221,227.857101 419.221,232.443101 C419.221,236.743101 421.18,240.365101 425.13,241.900101 C426.226,242.326101 427.41,241.504101 427.41,240.327101 L427.41,227.174101 C427.41,221.802101 430.436,219.559101 433.878,219.612101 C438.833,219.664101 444.153,224.358101 444.153,232.078101 C444.153,240.104101 438.865,244.545101 433.024,245.649101 C432.224,245.800101 431.636,246.484101 431.636,247.299101 L431.636,253.975101 C431.636,254.902101 430.884,255.654101 429.956,255.654101 L429.089,255.654101 C428.162,255.654101 427.41,254.902101 427.41,253.975101 L427.41,247.339101 C427.41,246.505101 426.795,245.812101 425.972,245.679101 C420.198,244.751101 414.684,240.784101 414.684,232.548101 C414.684,226.176101 418.653,221.989101 421.952,220.054101 C422.708,219.611185 423.677,219.834101 424.176,220.553101 L424.176,220.553101 Z" id="Fill-122" fill="#2D2E2C"></path>
                <path d="M186.478,411.043101 C186.478,411.568101 187.009,411.922101 187.499,411.731101 C189.091,411.110101 190.067,409.582101 190.067,407.413101 C190.067,405.158101 188.732,403.364101 187.444,403.364101 C186.869,403.364101 186.478,403.870101 186.478,404.928101 L186.478,411.043101 Z M183.188,402.306101 C183.408,402.625101 183.347,403.057101 183.046,403.301101 C182.021,404.131101 181.001,405.528101 181.001,407.551101 C181.001,409.448101 181.866,411.046101 183.608,411.722101 C184.092,411.911101 184.614,411.548101 184.614,411.029101 L184.614,405.227101 C184.614,402.857101 185.949,401.868101 187.467,401.891101 C189.653,401.914101 192,403.985101 192,407.390101 C192,410.930101 189.667,412.889101 187.09,413.377101 C186.737,413.443101 186.478,413.745101 186.478,414.104101 L186.478,417.049101 C186.478,417.459101 186.146,417.790101 185.737,417.790101 L185.354,417.790101 C184.946,417.790101 184.614,417.459101 184.614,417.049101 L184.614,414.122101 C184.614,413.754101 184.343,413.448101 183.979,413.390101 C181.433,412.980101 179,411.230101 179,407.597101 C179,404.787101 180.751,402.940101 182.207,402.087101 C182.54,401.890101 182.967,401.989101 183.188,402.306101 L183.188,402.306101 Z" id="Fill-123" fill="#F2E8D3"></path>
            </g>
        </g>
    </g>
</svg>